<svg width="13.08mm" height="13.146mm" version="1.1" viewBox="0 0 13.08 13.146" xmlns="http://www.w3.org/2000/svg"><g transform="translate(1.8776 -48.784)"><path d="m0.87358 61.162c-3.7751-2.5005-3.6416-6.1603 0.25539-6.9996 0.60422-0.13013 0.99372-0.43845 1.2937-1.0241 0.23606-0.46082 0.56141-0.92534 0.723-1.0322 0.44316-0.29319 1.7123-0.24076 2.343 0.0968 0.49258 0.26362 0.69524 0.15533 1.7007-0.90884 0.80394-0.85088 1.0893-1.3442 0.96495-1.6681-0.13404-0.3493-0.07319-0.42036 0.25281-0.29526 0.28875 0.1108 0.38532 0.05004 0.2949-0.18558-0.2171-0.56574 1.2722-0.43558 1.9288 0.16858 0.64055 0.5894 0.79569 2.1872 0.1898 1.9547-0.22779-0.08741-0.28751 0.01249-0.17802 0.2978 0.1251 0.326 0.05403 0.38685-0.29526 0.25281-0.32399-0.12433-0.81725 0.16101-1.6681 0.96495-1.0642 1.0055-1.1725 1.2081-0.90884 1.7007 0.70773 1.3224 0.20159 2.7237-1.1725 3.2461-0.38058 0.1447-0.66406 0.543-0.78456 1.1023-0.29817 1.3841-0.86455 2.2894-1.7038 2.7234-1.1379 0.58843-1.8907 0.49668-3.236-0.39443zm3.3216-0.27991c0.42721-0.33604 0.85057-1.0824 1.0993-1.9379 0.33528-1.1533 0.562-1.4665 1.3253-1.8304 0.78909-0.37629 0.92078-0.56992 0.92078-1.3538 0-1.4939-0.50744-1.4432-1.9749 0.19754-1.4331 1.6023-1.8041 1.7561-2.5683 1.0645-0.77114-0.69787-0.58231-1.1826 1.0185-2.6143 1.6407-1.4675 1.6915-1.9749 0.19754-1.9749-0.78134 0-0.97781 0.13233-1.3475 0.9076-0.35283 0.73989-0.70277 0.99657-1.8938 1.3891-1.8266 0.60193-2.5691 1.4948-2.325 2.7959 0.31591 1.6839 2.736 3.8805 4.2938 3.8973 0.3078 0.0033 0.87229-0.23991 1.2544-0.5405zm-2.7179-2.4733c-1.2703-1.3107-0.77915-1.8079 0.52648-0.53301 0.90684 0.8855 1.1162 1.4362 0.54598 1.4362-0.10839 0-0.59099-0.40643-1.0725-0.90318zm3.0206-2.2718c0-0.48491-0.15921-0.68407-0.5965-0.74616-0.35779-0.05081-0.66029 0.08154-0.75591 0.33073-0.26344 0.68651 0.1058 1.2539 0.75591 1.1616 0.43729-0.06209 0.5965-0.26125 0.5965-0.74616zm5.7601-6.4171c-0.39852-0.44036-0.58469-0.29877-3.1283 2.3791-1.9587 2.0621-2.6322 2.937-2.4422 3.1723 0.19448 0.24084 1.004-0.37481 3.1283-2.3791 2.6803-2.5289 2.8385-2.7344 2.4422-3.1723zm-0.60072 0.99315c0.34177-0.3638 0.68094-0.66146 0.7537-0.66146s-0.14734 0.29766-0.48912 0.66146c-0.34177 0.3638-0.68094 0.66146-0.7537 0.66146s0.14734-0.29766 0.48912-0.66146zm-0.52917-0.52917c0.34177-0.3638 0.68094-0.66146 0.7537-0.66146 0.07276 0-0.14734 0.29766-0.48912 0.66146-0.34178 0.3638-0.68094 0.66146-0.7537 0.66146-0.07276 0 0.14734-0.29766 0.48912-0.66146z" strokeWidth=".26458"/></g></svg>
